<?xml version="1.0" encoding="UTF-8"?>
<!-- Created with Inkscape (http://www.inkscape.org/) -->
<svg width="161.08mm" height="161.08mm" version="1.1" viewBox="0 0 161.08 161.08" xmlns="http://www.w3.org/2000/svg" xmlns:cc="http://creativecommons.org/ns#" xmlns:dc="http://purl.org/dc/elements/1.1/" xmlns:rdf="http://www.w3.org/1999/02/22-rdf-syntax-ns#">
 <metadata>
  <rdf:RDF>
   <cc:Work rdf:about="">
    <dc:format>image/svg+xml</dc:format>
    <dc:type rdf:resource="http://purl.org/dc/dcmitype/StillImage"/>
    <dc:title/>
   </cc:Work>
  </rdf:RDF>
 </metadata>
 <g transform="translate(354.92 -1.0983)" fill="#fff">
  <path d="m-345.08 80.634c-2.9377 24.48 23.029 40.592 44.029 35.028 0 0-9.7221-17.806-3.7412-35.938-13.998 5.9733-28.087 1.8085-40.288 0.91052z" stroke-width=".42286"/>
  <path d="m-295.97 34.996c-30.29 1.387-56.389 17.515-58.938 39.765-0.0688 0.85517 0.27299 5.9652 0.26738 6.825 14.962-8.6824 41.848 4.6079 49.154-7.0421 8.4201-10.607 0.41883-21.901 5.2858-34.892z" stroke-width=".52691"/>
  <path transform="matrix(.26458 0 0 .26458 -354.83 24.076)" d="m329.64-7.9609c-48.134 0.53642-65.78 14.26-93.047 40.908-23.976 23.432-5.3392 113.41-27.629 172.22-30.058 87.364 24.919 185.53 108.36 225.78 65.104 31.405 201.2 9.8345 274.07-159.96 58.705-116.18-44.18-252.61-155.25-268.89-47.708-6.993-81.287-10.33-106.5-10.049zm50.189 119.95c1.8596-6.5e-4 3.7377 0.11478 5.6289 0.3496 30.26 3.7571 50.776 26.382 47.904 63.482 0 0-3.0549 17.249-15.152 0.62109-1.3349-1.678-2.7373-3.274-4.2012-4.7812-1.4638-1.5083-2.9881-2.9256-4.5664-4.248-1.5783-1.321-3.208-2.544-4.8848-3.666-1.677-1.123-3.3972-2.144-5.1562-3.0566-1.7587-0.91251-3.5538-1.717-5.377-2.4102-1.8238-0.69332-3.6749-1.2734-5.5449-1.7402-1.8695-0.46587-3.7555-0.81784-5.6524-1.0527-1.343-0.16668-2.6904-0.27444-4.0391-0.32422-1.9045-0.0698-3.8095-0.0229-5.709 0.14063-1.9003 0.1622-3.7934 0.44009-5.6699 0.83398-1.876 0.39568-3.7332 0.90749-5.5664 1.5312-1.8334 0.62358-3.6397 1.3596-5.4121 2.2051-1.7722 0.8447-3.5076 1.7974-5.2012 2.8555-1.6936 1.0588-3.3435 2.2208-4.9414 3.4824-1.5977 1.2613-3.1429 2.6207-4.6289 4.0723-1.4863 1.4508-2.9116 2.9927-4.2715 4.6191-1.3594 1.6272-2.6498 3.3365-3.8691 5.123 0 0-4.9414 6.2887-8.0508-7.3144 2.6923-34.782 26.467-60.713 54.361-60.723z" stroke-width="1.3789"/>
 </g>
</svg>
